PathFileType	4	(X/Y/Z)	C:\Users\dbl\Desktop\20210112\20210112\bx_n_0_901.trc
DataRate	CameraRate	NumFrames	NumMarkers	Units	OrigDataRate	OrigDataStartFrame	OrigNumFrames
50.00	50.00	       4	43	mm	50.00	93	       370
Frame#	Time	Top.Head			R.Acromium			L.Acromium			Sternum			R.ASIS			L.ASIS			V.Sacral			R.Thigh.Upper			R.Thigh.Front			R.Thigh.Rear			R.Knee.Lat			R.Knee.Med			R.Shank.Upper			R.Shank.Front			R.Shank.Rear			R.Ankle.Lat			R.Midfoot.Lat			R.Toe.Lat			R.Toe.Tip			R.Toe.Med			R.Ankle.Med			R.Midfoot.Sup			R.Heel			L.Thigh.Upper			L.Thigh.Front			L.Thigh.Rear			L.Knee.Lat			L.Knee.Med			L.Shank.Upper			L.Shank.Front			L.Shank.Rear			L.Ankle.Lat			L.Midfoot.Lat			L.Toe.Lat			L.Toe.Tip			L.Toe.Med			L.Ankle.Med			L.Midfoot.Sup			L.Heel			origin1 front left			origin2 front right			origin 3 back right			origin 4 back leftt			
		X1	Y1	Z1	X2	Y2	Z2	X3	Y3	Z3	X4	Y4	Z4	X5	Y5	Z5	X6	Y6	Z6	X7	Y7	Z7	X8	Y8	Z8	X9	Y9	Z9	X10	Y10	Z10	X11	Y11	Z11	X12	Y12	Z12	X13	Y13	Z13	X14	Y14	Z14	X15	Y15	Z15	X16	Y16	Z16	X17	Y17	Z17	X18	Y18	Z18	X19	Y19	Z19	X20	Y20	Z20	X21	Y21	Z21	X22	Y22	Z22	X23	Y23	Z23	X24	Y24	Z24	X25	Y25	Z25	X26	Y26	Z26	X27	Y27	Z27	X28	Y28	Z28	X29	Y29	Z29	X30	Y30	Z30	X31	Y31	Z31	X32	Y32	Z32	X33	Y33	Z33	X34	Y34	Z34	X35	Y35	Z35	X36	Y36	Z36	X37	Y37	Z37	X38	Y38	Z38	X39	Y39	Z39	X40	Y40	Z40	X41	Y41	Z41	X42	Y42	Z42	X43	Y43	Z43	

93	1.840	-624.87830	112.39053	1851.04138	-659.09015	-79.21066	1534.56213	-678.19434	285.66309	1532.00171	-568.97534	107.29008	1350.34277	-586.34973	-7.28147	1050.36206	-589.90790	239.45731	1061.91760	-789.48828	96.04175	1063.38635	-656.78223	-73.57828	870.98676	-581.33368	-7.30908	800.59650	-677.61615	-64.14081	754.70490	-702.94061	-36.16036	613.50220	-691.33173	73.99331	571.19336	-711.20367	-33.69453	567.53802	-664.20331	15.86288	518.26495	-755.26422	-46.46148	488.41638	-758.27203	-18.89939	207.06726	-648.18219	-66.50256	163.10194	-605.91077	-71.22823	159.07420	-548.27106	-24.88931	164.53145	-600.24353	28.56940	166.64474	-674.41254	54.56035	158.01384	-719.67560	70.91437	216.43881	-793.55139	39.12772	175.01292	-674.99707	284.99277	872.08350	-581.69885	218.90112	790.46960	-684.65039	270.64856	742.52319	-721.70496	253.82153	641.25128	-689.46698	143.01210	574.00885	-721.66235	248.17001	575.69513	-670.99408	203.80750	533.29584	-761.23730	259.82230	501.94101	-764.73853	227.72244	205.52055	-652.45056	291.59760	157.01770	-615.37158	297.47815	158.69240	-552.71716	243.15585	165.96053	-589.30359	207.44461	174.21512	-714.77264	150.41278	217.41249	-675.38483	165.90643	157.69957	-795.58789	180.36803	184.72417	-528.16449	304.03873	146.56270	-517.69025	-72.97078	143.35313	-876.02478	-78.86276	141.46577	-882.51636	296.12698	144.66208	
94	1.860	-620.55365	112.35071	1850.73816	-656.76306	-79.15873	1534.55139	-675.87213	285.66238	1532.14526	-567.73474	107.31343	1349.88293	-586.73212	-7.14148	1050.21252	-590.33252	239.44998	1061.78357	-789.80536	96.05470	1063.67920	-657.29572	-73.48129	870.96136	-581.71722	-7.32428	800.61206	-678.07111	-64.08344	754.73645	-703.24866	-36.09636	613.38019	-691.54236	73.97765	571.08014	-711.48792	-33.66634	567.56372	-664.52631	15.84993	518.22852	-755.50342	-46.50443	488.41266	-758.28589	-18.90392	207.04106	-648.18231	-66.51147	163.11559	-605.93329	-71.25152	159.05991	-548.26617	-24.90017	164.51877	-600.34814	28.62351	166.64703	-674.46173	54.51737	158.08157	-719.70343	70.93075	216.44408	-793.55157	39.09969	175.00679	-675.42725	284.88196	872.02386	-582.09338	219.09724	790.46063	-685.03668	270.71576	742.43536	-721.96857	253.97255	641.22607	-689.83203	143.09492	573.93945	-721.88379	248.24414	575.72284	-671.38470	203.87666	533.29376	-761.44354	259.89478	501.88763	-764.75568	227.76738	205.50145	-652.45251	291.60883	157.02126	-615.37677	297.46509	158.67464	-552.73395	243.12410	165.94791	-589.29358	207.45711	174.21646	-714.76892	150.41328	217.42824	-675.44177	165.94235	157.63474	-795.56860	180.36633	184.72646	-528.16882	304.02814	146.55655	-517.68927	-72.96924	143.35231	-876.03302	-78.84898	141.45282	-882.51318	296.05298	144.62383	
95	1.880	-615.87286	112.40752	1850.41382	-654.27972	-79.18316	1534.53809	-673.33429	285.62006	1532.28735	-566.41748	107.29890	1349.37988	-587.18066	-6.98250	1050.09460	-590.76526	239.44417	1061.61108	-790.17438	96.09060	1064.00281	-657.94244	-73.37900	870.88965	-582.21039	-7.39832	800.58148	-678.58643	-64.01118	754.78247	-703.59619	-36.01414	613.29852	-691.86249	74.02281	571.06293	-711.80634	-33.64481	567.66779	-664.82367	15.83618	518.21979	-755.74628	-46.55682	488.38065	-758.29730	-18.90676	207.02489	-648.17230	-66.51822	163.12703	-605.94720	-71.30061	159.05786	-548.24963	-24.87173	164.47379	-600.41779	28.67418	166.63539	-674.46185	54.48187	158.11113	-719.73322	70.94978	216.44655	-793.55133	39.08073	175.00226	-675.89026	284.94635	872.09900	-582.46796	219.29720	790.46570	-685.44836	270.78745	742.39783	-722.37250	254.12744	641.21082	-690.28918	143.18555	573.90948	-722.08093	248.19617	575.65106	-671.84662	203.94864	533.24451	-761.66248	259.98804	501.85016	-764.77405	227.79655	205.49643	-652.47522	291.60681	157.03444	-615.37445	297.46024	158.67278	-552.73663	243.09889	165.96857	-589.28381	207.46849	174.21884	-714.77039	150.42844	217.44444	-675.50720	165.96918	157.60733	-795.54626	180.34436	184.70692	-528.17096	304.02881	146.53625	-517.70099	-72.92375	143.29984	-876.00812	-78.81612	141.39970	-882.52539	296.00140	144.59166	
96	1.900	-610.86969	112.50867	1850.04761	-651.67303	-79.25350	1534.51953	-670.57281	285.57224	1532.43835	-565.03314	107.27244	1348.78247	-587.70026	-6.90036	1050.12109	-591.20551	239.39519	1061.41260	-790.57043	96.12816	1064.37012	-658.71582	-73.34425	870.85608	-582.79639	-7.51184	800.53558	-679.17493	-63.94577	754.83667	-703.99280	-35.95672	613.32794	-692.34143	74.09076	571.15118	-712.16199	-33.63900	567.81366	-665.10834	15.79771	518.26318	-755.99860	-46.59706	488.34500	-758.30963	-18.90873	207.01637	-648.15790	-66.53602	163.13583	-605.95538	-71.34911	159.06602	-548.20856	-24.80577	164.41006	-600.43488	28.70449	166.61212	-674.43329	54.47184	158.10023	-719.75360	70.94573	216.44643	-793.53217	39.06981	174.99016	-676.45593	285.12177	872.21057	-582.89276	219.46600	790.47247	-685.92694	270.87885	742.38977	-722.88873	254.24341	641.18439	-690.72577	143.27110	573.94135	-722.32166	248.08557	575.50720	-672.26636	203.99765	533.20715	-761.90985	260.07114	501.81165	-764.79755	227.79449	205.48688	-652.48785	291.60941	157.03650	-615.36414	297.45734	158.68059	-552.73090	243.09621	165.99211	-589.28668	207.46719	174.20738	-714.77673	150.45984	217.46165	-675.54675	165.95647	157.66791	-795.53638	180.31770	184.66995	-528.16858	304.05566	146.49490	-517.72327	-72.83911	143.19708	-875.95587	-78.78298	141.32069	-882.54419	296.00681	144.58658	
